# xmcd
#
# Track frame offsets: 
#        150
#        13986
#        31212
#        47814
#        63021
#        84612
#        96708
#        111928
#        132197
#        148376
#        166008
#        183325
#        196588
#        236453
#        253065
#        271664
#        283488
#        297712
#
# Disc length: 4288 seconds
#
# Revision: 0
# Processed by: cddbd v1.5.2PL0 Copyright (c) Steve Scherf et al.
# Submitted via: ExactAudioCopyFreeDBPlugin 1.0
#
DISCID=1110be12
DTITLE=Robin Trower - Farther up on the road - CD 03
DYEAR=2012
DGENRE=Blues
TTITLE0=Gonna Shut You Down
TTITLE1=Gone Too Far
TTITLE2=Thin Ice
TTITLE3=Last Train to the Stars
TTITLE4=Take Good Care of Yourself
TTITLE5=Fall in Love
TTITLE6=Fat Gut
TTITLE7=Shadows Touching
TTITLE8=Little Boy Lost
TTITLE9=Back It Up
TTITLE10=River
TTITLE11=Black to Red
TTITLE12=Benny Dancer
TTITLE13=Time Is Short
TTITLE14=Islands
TTITLE15=None But the Brave
TTITLE16=Captain Midnight
TTITLE17=Settling the Score
EXTD=
EXTT0=
EXTT1=
EXTT2=
EXTT3=
EXTT4=
EXTT5=
EXTT6=
EXTT7=
EXTT8=
EXTT9=
EXTT10=
EXTT11=
EXTT12=
EXTT13=
EXTT14=
EXTT15=
EXTT16=
EXTT17=
PLAYORDER=
